/* XPM */
static char * vishai32_xpm[] = {
"32 32 3 1",
" 	c None",
".	c #EF7F1A",
"+	c #D9DADA",
"                                ",
"                                ",
"                                ",
"                                ",
"                                ",
"                     .          ",
"        ++++        ....        ",
"       ++++++      ......       ",
"       ++++++      ......       ",
"       ++++++      ......       ",
"  ++    ++++       .....    ..  ",
"  +++    ++          ..    ...  ",
"  ++++                    ....  ",
"  +++++                  .....  ",
" +++++++                ....... ",
" +++++++++            ......... ",
" +++++++++++++    ............. ",
" +++++++++++++    ............. ",
"  ++++++++++        ..........  ",
"  ++++++++++        ..........  ",
"  ++++++++++        ..........  ",
"  ++++++++++        ..........  ",
"   +++++++++        .........   ",
"   +++++++++        .........   ",
"    ++++++++        ........    ",
"     ++++++++      ........     ",
"      +++++++      .......      ",
"       ++++++      ......       ",
"        ++++++    ......        ",
"          ++++    ....          ",
"              +  .              ",
"                                "};
